<svg width="24" height="24" viewBox="0 0 24 24" fill="none" xmlns="http://www.w3.org/2000/svg">
<path d="M17.3013 3.75442C17.1678 3.75442 16.2194 3.94147 8.44338 5.39797C8.38263 5.39797 8.0919 5.47394 7.93215 5.60744C7.7754 5.73344 7.69191 5.90163 7.66116 6.09963C7.53141 6.61788 7.94483 15.9609 7.56008 16.3989C7.39208 16.5857 7.09596 16.6397 6.86721 16.6817C5.49921 16.9217 4.58845 17.0473 3.94045 17.6646C2.8237 18.7543 3.40234 20.6559 5.04934 20.9649C5.66659 21.0789 6.82583 20.9241 7.46633 20.5694C8.03033 20.2791 8.45795 19.7572 8.6177 19.0635C8.75495 18.4687 8.71292 18.8799 8.71292 9.93313C8.71292 9.49438 8.83565 9.37992 9.22415 9.29592C9.22415 9.29592 15.9895 8.03081 16.3023 7.97756C16.7403 7.90106 16.9497 8.01956 16.9497 8.44631C16.9497 14.5116 17.0265 14.393 16.7827 14.6675C16.6147 14.8543 16.4153 14.9068 16.1865 14.9488C14.8178 15.1888 13.9913 15.2309 13.3433 15.8482C12.5235 16.6484 12.5346 17.9176 13.4458 18.6841C14.1246 19.2016 14.8866 19.329 15.8203 19.1572C16.8838 18.9585 17.6772 18.3709 17.9209 17.3262C18.0312 16.8499 17.9957 17.5548 17.9912 4.42531C17.9912 3.98281 17.7393 3.72367 17.3013 3.75442Z" fill="white"/>
</svg>
