<svg width="465" height="93" viewBox="0 0 465 93" fill="none" xmlns="http://www.w3.org/2000/svg">
<path d="M0.242076 4.52727H19.4113L45.0829 67.1862H46.0963L71.7679 4.52727H90.9371V91H75.9057V31.5922H75.1035L51.2053 90.7467H39.9739L16.0757 31.4656H15.2735V91H0.242076V4.52727ZM148.656 63.7239V26.1455H163.941V91H149.12V79.4731H148.445C146.981 83.1043 144.574 86.074 141.225 88.3822C137.903 90.6904 133.808 91.8445 128.938 91.8445C124.687 91.8445 120.93 90.9015 117.664 89.0155C114.427 87.1014 111.894 84.3288 110.064 80.6976C108.234 77.0383 107.32 72.6189 107.32 67.4396V26.1455H122.604V65.0751C122.604 69.1848 123.73 72.45 125.982 74.8708C128.234 77.2916 131.19 78.502 134.849 78.502C137.101 78.502 139.282 77.9531 141.394 76.8553C143.505 75.7575 145.236 74.1249 146.587 71.9574C147.966 69.7618 148.656 67.0173 148.656 63.7239ZM230.917 43.288L216.983 44.808C216.589 43.4006 215.9 42.0776 214.914 40.8391C213.957 39.6005 212.663 38.6012 211.03 37.8412C209.397 37.0812 207.399 36.7012 205.034 36.7012C201.853 36.7012 199.179 37.3908 197.012 38.7701C194.873 40.1494 193.817 41.9369 193.845 44.1325C193.817 46.0184 194.507 47.5525 195.914 48.7348C197.35 49.917 199.714 50.8881 203.008 51.6482L214.07 54.0126C220.206 55.3356 224.766 57.4327 227.75 60.3039C230.762 63.175 232.282 66.9329 232.31 71.5774C232.282 75.659 231.086 79.262 228.721 82.3865C226.385 85.4829 223.134 87.9036 218.968 89.6489C214.802 91.3941 210.017 92.2667 204.612 92.2667C196.674 92.2667 190.284 90.6059 185.443 87.2844C180.601 83.9347 177.716 79.2761 176.787 73.3086L191.692 71.873C192.367 74.8004 193.803 77.0101 195.999 78.502C198.194 79.9939 201.051 80.7398 204.57 80.7398C208.201 80.7398 211.114 79.9939 213.31 78.502C215.534 77.0101 216.646 75.1664 216.646 72.9708C216.646 71.113 215.928 69.5789 214.492 68.3685C213.085 67.1581 210.889 66.2292 207.905 65.5817L196.843 63.2595C190.622 61.9646 186.02 59.7831 183.036 56.7149C180.052 53.6186 178.574 49.7059 178.603 44.9769C178.574 40.9798 179.658 37.5175 181.854 34.5901C184.078 31.6344 187.16 29.3544 191.101 27.7499C195.07 26.1173 199.644 25.301 204.823 25.301C212.423 25.301 218.405 26.9195 222.768 30.1566C227.159 33.3937 229.875 37.7709 230.917 43.288ZM244.914 91V26.1455H260.199V91H244.914ZM252.598 16.9408C250.178 16.9408 248.095 16.1386 246.349 14.5341C244.604 12.9015 243.732 10.9452 243.732 8.66512C243.732 6.35693 244.604 4.4006 246.349 2.79612C248.095 1.1635 250.178 0.347191 252.598 0.347191C255.047 0.347191 257.13 1.1635 258.847 2.79612C260.593 4.4006 261.465 6.35693 261.465 8.66512C261.465 10.9452 260.593 12.9015 258.847 14.5341C257.13 16.1386 255.047 16.9408 252.598 16.9408ZM304.206 92.2667C297.731 92.2667 292.172 90.8452 287.527 88.0022C282.911 85.1591 279.35 81.2324 276.845 76.2219C274.368 71.1833 273.129 65.3847 273.129 58.8261C273.129 52.2393 274.396 46.4266 276.929 41.388C279.463 36.3212 283.038 32.3804 287.654 29.5655C292.299 26.7225 297.788 25.301 304.121 25.301C309.385 25.301 314.043 26.2721 318.097 28.2144C322.178 30.1285 325.43 32.8448 327.85 36.3634C330.271 39.8539 331.65 43.9354 331.988 48.6081H317.379C316.788 45.4836 315.381 42.8798 313.157 40.7968C310.961 38.6857 308.02 37.6301 304.332 37.6301C301.208 37.6301 298.463 38.4746 296.099 40.1635C293.734 41.8243 291.89 44.2169 290.567 47.3414C289.273 50.4659 288.625 54.2097 288.625 58.5727C288.625 62.9921 289.273 66.7921 290.567 69.9729C291.862 73.1256 293.678 75.5605 296.014 77.2775C298.379 78.9664 301.151 79.8109 304.332 79.8109C306.584 79.8109 308.597 79.3887 310.37 78.5442C312.172 77.6716 313.678 76.419 314.888 74.7864C316.098 73.1537 316.929 71.1693 317.379 68.8329H331.988C331.622 73.4212 330.271 77.4886 327.935 81.0354C325.599 84.554 322.418 87.3125 318.392 89.3111C314.367 91.2815 309.638 92.2667 304.206 92.2667ZM356.573 26.1455L369.662 50.0859L382.962 26.1455H399.133L379.584 58.5727L399.471 91H383.384L369.662 67.6507L356.066 91H339.852L359.613 58.5727L340.359 26.1455H356.573ZM436.807 92.2667C430.333 92.2667 424.773 90.8452 420.129 88.0022C415.512 85.1591 411.952 81.2324 409.446 76.2219C406.969 71.1833 405.731 65.3847 405.731 58.8261C405.731 52.2393 406.997 46.4266 409.531 41.388C412.064 36.3212 415.639 32.3804 420.255 29.5655C424.9 26.7225 430.389 25.301 436.722 25.301C441.986 25.301 446.645 26.2721 450.698 28.2144C454.78 30.1285 458.031 32.8448 460.452 36.3634C462.873 39.8539 464.252 43.9354 464.59 48.6081H449.98C449.389 45.4836 447.982 42.8798 445.758 40.7968C443.563 38.6857 440.621 37.6301 436.934 37.6301C433.809 37.6301 431.065 38.4746 428.7 40.1635C426.336 41.8243 424.492 44.2169 423.169 47.3414C421.874 50.4659 421.227 54.2097 421.227 58.5727C421.227 62.9921 421.874 66.7921 423.169 69.9729C424.464 73.1256 426.279 75.5605 428.616 77.2775C430.98 78.9664 433.753 79.8109 436.934 79.8109C439.185 79.8109 441.198 79.3887 442.971 78.5442C444.773 77.6716 446.279 76.419 447.489 74.7864C448.7 73.1537 449.53 71.1693 449.98 68.8329H464.59C464.224 73.4212 462.873 77.4886 460.536 81.0354C458.2 84.554 455.019 87.3125 450.994 89.3111C446.969 91.2815 442.24 92.2667 436.807 92.2667Z" fill="#EAEAEA"/>
</svg>
